{"title":"Hot Tub Time Machine 2010 DVDrip English Klam","uid":6610698,"size":1576263814,"categoryP":"video","categoryS":"movies","magnet":"?xt=urn:btih:616828bb3671871a3ea99334cce8571c0929a7f8&amp;dn=Hot+Tub+Time+Machine+2010+DVDrip+English+Klam&amp;tr=udp%3A%2F%2Ftracker.openbittorrent.com%3A80&amp;tr=udp%3A%2F%2Fopen.demonii.com%3A1337&amp;tr=udp%3A%2F%2Ftracker.coppersurfer.tk%3A6969&amp;tr=udp%3A%2F%2Fexodus.desync.com%3A6969","seeders":1,"leechers":0,"uploader":"Klambake","files":-1,"time":1313581512,"description":"With: John Cusack, Craig Robinson and Rob Corddry\n\nEen stel vrienden op leeftijd zuipt op een avondje flink door. Als ze beschonken in een bubbelbad gaan zitten, blijkt dit tot hun schrik een 'Hot Tub Time Machine' te zijn die hen terugstuurt naar het jaar 1986. Dankzij deze tijdmachine vinden ze hun jeugd terug, wat voor de nodige bizarre ontmoetingen en gebeurtenissen zorgt...\n\nA malfunctioning time machine at a ski resort takes a man back to 1986 with his two friends and nephew, where they must relive a fateful night and not change anything to make sure the nephew is born. \n\n------------------ Dutch Friends ------------------\nYou can find my Friends at: http://www.Film-Test.nl \n------ They got my dutchs subs ---- and more ------\n\nGeneral:\n\nComplete name                    : Hot Tub Time Machine\\Hot Tub Time Machine.avi\nFormat                           : AVI\nFormat/Info                      : Audio Video Interleave\nFile size                        : 1.47 GiB\nDuration                         : 1h 36mn\nOverall bit rate                 : 2 177 Kbps\n\nVideo:\n\nFormat                           : MPEG-4 Visual\nFormat profile                   : Simple@L3\nFormat settings, BVOP            : No\nFormat settings, QPel            : No\nFormat settings, GMC             : No warppoints\nFormat settings, Matrix          : Default (H.263)\nCodec ID                         : XVID\nCodec ID/Hint                    : XviD\nDuration                         : 1h 36mn\nBit rate                         : 1 718 Kbps\nWidth                            : 652 pixels\nHeight                           : 352 pixels\nDisplay aspect ratio             : 1.852\nFrame rate                       : 25.000 fps\nColor space                      : YUV\nChroma subsampling               : 4:2:0\nBit depth                        : 8 bits\nScan type                        : Progressive\nBits/(Pixel*Frame)               : 0.299\nStream size                      : 1.16 GiB (79%)\nWriting library                  : XviD 1.1.2 (UTC 2006-11-01)\n\nAudio:\n\nFormat                           : AC-3\nFormat/Info                      : Audio Coding 3\nMode extension                   : CM (complete main)\nCodec ID                         : 2000\nDuration                         : 1h 36mn\nBit rate mode                    : Constant\nBit rate                         : 448 Kbps\nChannel(s)                       : 6 channels\nChannel positions                : Front: L C R, Side: L R, LFE\nSampling rate                    : 48.0 KHz\nBit depth                        : 16 bits\nStream size                      : 309 MiB (21%)\nAlignment                        : Aligned on interleaves\nInterleave, duration             : 32 ms (0.80 video frame)\nInterleave, preload duration     : 576 ms\n\n","torrent":{"xt":"urn:btih:616828bb3671871a3ea99334cce8571c0929a7f8","amp;dn":"Hot+Tub+Time+Machine+2010+DVDrip+English+Klam","amp;tr":["udp%3A%2F%2Ftracker.openbittorrent.com%3A80","udp%3A%2F%2Fopen.demonii.com%3A1337","udp%3A%2F%2Ftracker.coppersurfer.tk%3A6969","udp%3A%2F%2Fexodus.desync.com%3A6969"],"infoHash":"616828bb3671871a3ea99334cce8571c0929a7f8","infoHashBuffer":{"type":"Buffer","data":[97,104,40,187,54,113,135,26,62,169,147,52,204,232,87,28,9,41,167,248]},"announce":[],"urlList":[]}}